<?xml version="1.0" standalone="no"?>
<!DOCTYPE svg PUBLIC "-//W3C//DTD SVG 20010904//EN"
 "http://www.w3.org/TR/2001/REC-SVG-20010904/DTD/svg10.dtd">
<svg version="1.0" xmlns="http://www.w3.org/2000/svg"
 width="1195.000000pt" height="1280.000000pt" viewBox="0 0 1195.000000 1280.000000"
 preserveAspectRatio="xMidYMid meet">
<g transform="translate(0.000000,1280.000000) scale(0.100000,-0.100000)"
fill="#000000" stroke="none">
<path d="M5810 12797 c-3 -3 -77 -10 -165 -17 -1230 -90 -2326 -579 -3194
-1425 -878 -857 -1393 -1941 -1513 -3190 -19 -196 -16 -693 5 -903 90 -892
401 -1718 918 -2437 49 -68 89 -129 89 -135 0 -6 -51 -66 -112 -133 -290 -315
-569 -682 -808 -1063 -353 -563 -697 -1289 -935 -1974 -77 -223 -110 -425 -86
-533 5 -23 15 -71 22 -107 69 -368 344 -684 703 -809 49 -18 130 -39 180 -49
85 -16 399 -17 5061 -17 4662 0 4976 1 5061 17 175 33 332 100 464 198 74 55
188 171 242 245 82 114 151 276 177 415 7 36 17 84 22 107 26 119 -8 305 -114
618 -212 622 -458 1189 -742 1701 -275 496 -595 951 -940 1339 -52 59 -95 111
-95 116 0 5 34 58 76 117 636 898 963 2050 894 3147 -64 1016 -406 1949 -1009
2750 -337 449 -776 863 -1241 1170 -825 546 -1728 824 -2765 852 -104 3 -192
3 -195 0z"/>
</g>
</svg>
